<?xml version="1.0" standalone="no"?><!-- Generator: Gravit.io --><svg xmlns="http://www.w3.org/2000/svg" xmlns:xlink="http://www.w3.org/1999/xlink" style="isolation:isolate" viewBox="0 0 512 512" width="512" height="512"><defs><clipPath id="_clipPath_osmTLxEC3U6DVVSofKWh1v17qb9Y9z5C"><rect width="512" height="512"/></clipPath></defs><g clip-path="url(#_clipPath_osmTLxEC3U6DVVSofKWh1v17qb9Y9z5C)"><rect width="512" height="512" style="fill:rgb(108,38,38)"/><path d=" M 238.971 331.68 L 238.971 331.68 L 238.971 331.68 Q 255.265 346.445 269.521 362.993 L 269.521 362.993 L 269.521 362.993 Q 283.778 379.541 297.016 397.362 L 297.016 397.362 L 297.016 397.362 Q 297.526 398.381 299.817 401.181 L 299.817 401.181 L 299.817 401.181 Q 302.108 403.982 301.09 405 L 301.09 405 L 301.09 405 Q 300.581 405.509 297.271 404.236 L 297.271 404.236 L 297.271 404.236 Q 293.961 402.963 292.943 401.945 L 292.943 401.945 L 292.943 401.945 Q 288.87 399.399 283.523 395.326 L 283.523 395.326 L 283.523 395.326 Q 278.177 391.252 272.322 386.67 L 272.322 386.67 L 272.322 386.67 Q 266.466 382.087 260.865 377.25 L 260.865 377.25 L 260.865 377.25 Q 255.265 372.413 251.7 368.34 L 251.7 368.34 L 251.7 368.34 Q 249.154 366.303 239.48 357.902 L 239.48 357.902 L 239.48 357.902 Q 229.806 349.5 217.586 339.826 L 217.586 339.826 L 217.586 339.826 Q 205.366 330.152 192.637 322.005 L 192.637 322.005 L 192.637 322.005 Q 179.908 313.859 171.761 311.822 L 171.761 311.822 L 171.761 311.822 Q 170.233 311.313 167.433 310.294 L 167.433 310.294 L 167.433 310.294 Q 164.632 309.276 165.142 306.73 L 165.142 306.73 L 165.142 306.73 Q 169.215 287.382 175.325 269.052 L 175.325 269.052 L 175.325 269.052 Q 181.435 250.722 187.036 231.373 L 187.036 231.373 L 187.036 231.373 Q 194.164 207.442 200.529 182.493 L 200.529 182.493 L 200.529 182.493 Q 206.893 157.544 207.912 128.521 L 207.912 128.521 L 207.912 128.521 Q 207.912 125.975 208.421 125.975 L 208.421 125.975 L 208.421 125.975 Q 209.948 125.975 210.967 129.539 L 210.967 129.539 L 210.967 129.539 Q 217.077 143.287 216.059 165.181 L 216.059 165.181 L 216.059 165.181 Q 215.04 187.076 210.712 210.752 L 210.712 210.752 L 210.712 210.752 Q 206.384 234.428 200.02 256.068 L 200.02 256.068 L 200.02 256.068 Q 193.655 277.708 189.073 290.437 L 189.073 290.437 L 187.545 294.51 L 187.545 294.51 Q 206.384 281.781 226.751 269.052 L 226.751 269.052 L 226.751 269.052 Q 247.118 256.323 264.684 243.339 L 264.684 243.339 L 264.684 243.339 Q 282.25 230.355 295.234 216.353 L 295.234 216.353 L 295.234 216.353 Q 308.218 202.351 312.801 187.076 L 312.801 187.076 L 312.801 187.076 Q 315.856 176.892 312.037 166.709 L 312.037 166.709 L 312.037 166.709 Q 308.218 156.525 298.798 147.615 L 298.798 147.615 L 298.798 147.615 Q 289.379 138.705 275.122 132.085 L 275.122 132.085 L 275.122 132.085 Q 260.865 125.466 243.554 122.92 L 243.554 122.92 L 243.554 122.92 Q 220.641 119.865 197.219 121.393 L 197.219 121.393 L 197.219 121.393 Q 199.256 136.668 197.983 152.197 L 197.983 152.197 L 197.983 152.197 Q 196.71 167.727 194.164 178.929 L 194.164 178.929 L 194.164 178.929 Q 187.545 206.424 177.362 235.701 L 177.362 235.701 L 177.362 235.701 Q 167.178 264.978 156.486 290.437 L 156.486 290.437 L 156.486 290.437 Q 155.467 291.964 153.431 295.529 L 153.431 295.529 L 153.431 295.529 Q 151.394 299.093 149.867 298.584 L 149.867 298.584 L 149.867 298.584 Q 148.848 298.074 149.357 294.001 L 149.357 294.001 L 149.357 294.001 Q 149.867 289.928 149.867 288.4 L 149.867 288.4 L 149.867 288.4 Q 150.376 282.29 152.158 273.38 L 152.158 273.38 L 152.158 273.38 Q 153.94 264.469 155.722 254.795 L 155.722 254.795 L 155.722 254.795 Q 157.504 245.121 159.795 236.21 L 159.795 236.21 L 159.795 236.21 Q 162.087 227.3 164.123 220.681 L 164.123 220.681 L 164.123 220.681 Q 165.142 217.626 167.433 207.697 L 167.433 207.697 L 167.433 207.697 Q 169.724 197.768 172.27 184.021 L 172.27 184.021 L 172.27 184.021 Q 174.816 170.273 177.362 154.489 L 177.362 154.489 L 177.362 154.489 Q 179.908 138.705 181.435 123.939 L 181.435 123.939 L 174.307 124.957 L 174.307 124.957 Q 172.779 144.305 168.197 164.163 L 168.197 164.163 L 168.197 164.163 Q 163.614 184.021 157.759 204.133 L 157.759 204.133 L 157.759 204.133 Q 151.903 224.245 145.539 244.866 L 145.539 244.866 L 145.539 244.866 Q 139.174 265.488 134.591 285.345 L 134.591 285.345 L 134.591 285.345 Q 130.518 303.166 128.227 322.515 L 128.227 322.515 L 128.227 322.515 Q 125.936 341.863 126.699 360.702 L 126.699 360.702 L 126.699 360.702 Q 127.463 379.541 131.282 397.108 L 131.282 397.108 L 131.282 397.108 Q 135.101 414.674 143.757 428.931 L 143.757 428.931 L 143.757 428.931 Q 144.775 431.477 143.757 431.477 L 143.757 431.477 L 143.757 431.477 Q 142.738 431.477 141.211 429.949 L 141.211 429.949 L 141.211 429.949 Q 128.481 415.183 121.862 396.853 L 121.862 396.853 L 121.862 396.853 Q 115.243 378.523 113.461 358.411 L 113.461 358.411 L 113.461 358.411 Q 111.679 338.299 113.97 316.914 L 113.97 316.914 L 113.97 316.914 Q 116.261 295.529 120.844 275.162 L 120.844 275.162 L 120.844 275.162 Q 129.5 236.974 141.72 199.805 L 141.72 199.805 L 141.72 199.805 Q 153.94 162.635 162.087 128.012 L 162.087 128.012 L 162.087 128.012 Q 149.357 131.067 137.137 135.395 L 137.137 135.395 L 137.137 135.395 Q 124.917 139.723 114.225 144.815 L 114.225 144.815 L 114.225 144.815 Q 111.679 145.833 111.17 145.324 L 111.17 145.324 L 111.17 145.324 Q 110.661 144.815 111.679 143.542 L 111.679 143.542 L 111.679 143.542 Q 112.697 142.269 113.716 141.76 L 113.716 141.76 L 113.716 141.76 Q 139.174 120.884 175.834 112.228 L 175.834 112.228 L 175.834 112.228 Q 212.494 103.572 250.682 107.645 L 250.682 107.645 L 250.682 107.645 Q 270.54 110.191 287.088 118.847 L 287.088 118.847 L 287.088 118.847 Q 303.636 127.503 314.328 139.977 L 314.328 139.977 L 314.328 139.977 Q 325.021 152.452 328.33 167.727 L 328.33 167.727 L 328.33 167.727 Q 331.64 183.002 325.021 198.277 L 325.021 198.277 L 325.021 198.277 Q 317.383 216.098 300.835 231.373 L 300.835 231.373 L 300.835 231.373 Q 284.287 246.648 263.666 259.887 L 263.666 259.887 L 263.666 259.887 Q 243.044 273.125 220.132 284.327 L 220.132 284.327 L 220.132 284.327 Q 197.219 295.529 177.362 305.203 L 177.362 305.203 L 177.362 305.203 Q 185.508 305.203 194.164 307.749 L 194.164 307.749 L 194.164 307.749 Q 202.82 310.294 211.221 314.113 L 211.221 314.113 L 211.221 314.113 Q 219.623 317.932 227.006 322.515 L 227.006 322.515 L 227.006 322.515 Q 234.389 327.097 238.971 331.68 Z  M 380.011 204.387 L 380.011 204.387 L 380.011 204.387 Q 372.373 230.864 356.844 249.449 L 356.844 249.449 L 356.844 249.449 Q 341.314 268.033 322.475 280.254 L 322.475 280.254 L 322.475 280.254 Q 303.636 292.474 284.287 298.838 L 284.287 298.838 L 284.287 298.838 Q 264.939 305.203 250.682 307.239 L 250.682 307.239 L 250.682 307.239 Q 246.609 308.258 243.299 308.003 L 243.299 308.003 L 243.299 308.003 Q 239.989 307.749 240.499 306.73 L 240.499 306.73 L 240.499 306.73 Q 239.48 305.712 242.79 304.694 L 242.79 304.694 L 242.79 304.694 Q 246.099 303.675 249.664 302.148 L 249.664 302.148 L 249.664 302.148 Q 277.159 291.964 302.617 275.671 L 302.617 275.671 L 302.617 275.671 Q 328.076 259.378 347.424 232.392 L 347.424 232.392 L 347.424 232.392 Q 356.589 219.662 361.172 202.86 L 361.172 202.86 L 361.172 202.86 Q 365.754 186.057 364.481 168.745 L 364.481 168.745 L 364.481 168.745 Q 363.208 151.434 355.825 135.14 L 355.825 135.14 L 355.825 135.14 Q 348.442 118.847 334.186 107.136 L 334.186 107.136 L 334.186 107.136 Q 317.383 92.879 297.526 84.733 L 297.526 84.733 L 297.526 84.733 Q 277.668 76.586 256.792 73.531 L 256.792 73.531 L 256.792 73.531 Q 235.916 70.476 214.531 72.258 L 214.531 72.258 L 214.531 72.258 Q 193.146 74.04 173.288 79.132 L 173.288 79.132 L 173.288 79.132 Q 169.724 80.15 169.215 80.405 L 169.215 80.405 L 169.215 80.405 Q 168.706 80.659 168.197 79.641 L 168.197 79.641 L 168.197 79.641 Q 168.197 79.132 172.27 76.077 L 172.27 76.077 L 172.27 76.077 Q 180.417 70.985 193.91 66.657 L 193.91 66.657 L 193.91 66.657 Q 207.403 62.329 224.46 60.802 L 224.46 60.802 L 224.46 60.802 Q 241.517 59.274 261.375 61.056 L 261.375 61.056 L 261.375 61.056 Q 281.232 62.838 302.108 70.476 L 302.108 70.476 L 302.108 70.476 Q 323.493 77.604 342.332 92.625 L 342.332 92.625 L 342.332 92.625 Q 361.172 107.645 372.373 129.539 L 372.373 129.539 L 372.373 129.539 Q 383.066 150.925 383.321 171.037 L 383.321 171.037 L 383.321 171.037 Q 383.575 191.149 380.011 204.387 Z  M 121.353 121.393 L 121.353 121.393 L 121.353 121.393 Q 131.536 106.627 148.339 97.207 L 148.339 97.207 L 148.339 97.207 Q 165.142 87.788 184.999 83.205 L 184.999 83.205 L 184.999 83.205 Q 204.857 78.623 226.496 79.132 L 226.496 79.132 L 226.496 79.132 Q 248.136 79.641 268.503 84.223 L 268.503 84.223 L 268.503 84.223 Q 288.87 88.806 306.436 97.971 L 306.436 97.971 L 306.436 97.971 Q 324.002 107.136 335.713 120.374 L 335.713 120.374 L 335.713 120.374 Q 343.86 130.049 348.188 140.996 L 348.188 140.996 L 348.188 140.996 Q 352.516 151.943 352.77 163.399 L 352.77 163.399 L 352.77 163.399 Q 353.025 174.855 350.225 185.548 L 350.225 185.548 L 350.225 185.548 Q 347.424 196.241 342.332 205.406 L 342.332 205.406 L 342.332 205.406 Q 341.314 207.442 337.241 212.279 L 337.241 212.279 L 337.241 212.279 Q 333.167 217.117 332.149 216.098 L 332.149 216.098 L 332.149 216.098 Q 331.131 215.589 333.677 210.497 L 333.677 210.497 L 333.677 210.497 Q 336.222 205.406 337.241 202.86 L 337.241 202.86 L 337.241 202.86 Q 341.314 189.621 340.55 176.638 L 340.55 176.638 L 340.55 176.638 Q 339.787 163.654 335.459 152.452 L 335.459 152.452 L 335.459 152.452 Q 331.131 141.25 324.002 132.34 L 324.002 132.34 L 324.002 132.34 Q 316.874 123.429 308.727 117.829 L 308.727 117.829 L 308.727 117.829 Q 289.379 105.099 264.939 99.753 L 264.939 99.753 L 264.939 99.753 Q 240.499 94.407 215.295 95.68 L 215.295 95.68 L 215.295 95.68 Q 190.091 96.953 166.16 104.336 L 166.16 104.336 L 166.16 104.336 Q 142.229 111.719 124.917 123.939 L 124.917 123.939 L 124.917 123.939 Q 120.335 128.012 118.807 126.484 L 118.807 126.484 L 118.807 126.484 Q 117.789 125.975 119.062 124.193 L 119.062 124.193 L 119.062 124.193 Q 120.335 122.411 121.353 121.393 Z  M 392.74 442.169 L 392.74 442.169 L 392.74 442.169 Q 395.795 441.66 395.795 442.678 L 395.795 442.678 L 395.795 442.678 Q 395.795 443.697 393.249 444.715 L 393.249 444.715 L 393.249 444.715 Q 374.919 451.334 357.608 451.843 L 357.608 451.843 L 357.608 451.843 Q 340.296 452.353 324.512 448.534 L 324.512 448.534 L 324.512 448.534 Q 308.727 444.715 294.98 437.841 L 294.98 437.841 L 294.98 437.841 Q 281.232 430.967 270.03 422.821 L 270.03 422.821 L 270.03 422.821 Q 256.792 413.147 244.827 401.181 L 244.827 401.181 L 244.827 401.181 Q 232.861 389.216 221.659 377.25 L 221.659 377.25 L 221.659 377.25 Q 210.458 365.285 199.256 354.083 L 199.256 354.083 L 199.256 354.083 Q 188.054 342.881 176.343 334.225 L 176.343 334.225 L 176.343 334.225 Q 167.687 362.739 160.559 384.633 L 160.559 384.633 L 160.559 384.633 Q 159.541 387.179 158.522 389.216 L 158.522 389.216 L 158.522 389.216 Q 157.504 391.252 156.486 390.743 L 156.486 390.743 L 156.486 390.743 Q 155.467 390.234 155.467 387.943 L 155.467 387.943 L 155.467 387.943 Q 155.467 385.651 155.467 383.106 L 155.467 383.106 L 155.467 383.106 Q 156.486 368.849 157.504 354.083 L 157.504 354.083 L 157.504 354.083 Q 158.522 339.317 162.087 324.551 L 162.087 324.551 L 162.087 324.551 Q 158.522 322.515 155.213 320.987 L 155.213 320.987 L 155.213 320.987 Q 151.903 319.46 147.83 317.423 L 147.83 317.423 L 147.83 317.423 Q 146.302 315.895 146.302 315.386 L 146.302 315.386 L 146.302 315.386 Q 146.302 314.877 147.575 314.877 L 147.575 314.877 L 147.575 314.877 Q 148.848 314.877 149.867 314.877 L 149.867 314.877 L 149.867 314.877 Q 170.233 316.404 187.036 327.352 L 187.036 327.352 L 187.036 327.352 Q 203.838 338.299 219.623 353.065 L 219.623 353.065 L 219.623 353.065 Q 235.407 367.831 250.682 384.379 L 250.682 384.379 L 250.682 384.379 Q 265.957 400.927 283.269 413.656 L 283.269 413.656 L 283.269 413.656 Q 292.943 420.784 305.418 426.64 L 305.418 426.64 L 305.418 426.64 Q 317.892 432.495 332.149 436.568 L 332.149 436.568 L 332.149 436.568 Q 346.406 440.642 361.935 442.424 L 361.935 442.424 L 361.935 442.424 Q 377.465 444.206 392.74 442.169 Z  M 313.819 367.831 L 313.819 367.831 L 313.819 367.831 Q 328.076 380.56 341.06 396.344 L 341.06 396.344 L 341.06 396.344 Q 354.043 412.128 366.263 421.802 L 366.263 421.802 L 366.263 421.802 Q 369.828 425.367 369.318 426.894 L 369.318 426.894 L 369.318 426.894 Q 368.3 427.912 366.773 427.403 L 366.773 427.403 L 366.773 427.403 Q 365.245 426.894 363.208 426.385 L 363.208 426.385 L 363.208 426.385 Q 349.461 421.802 337.495 413.656 L 337.495 413.656 L 337.495 413.656 Q 325.53 405.509 314.328 395.326 L 314.328 395.326 L 314.328 395.326 Q 303.126 385.142 292.688 373.941 L 292.688 373.941 L 292.688 373.941 Q 282.25 362.739 271.558 352.046 L 271.558 352.046 L 271.558 352.046 Q 264.43 344.918 256.028 336.262 L 256.028 336.262 L 256.028 336.262 Q 247.627 327.606 238.462 320.223 L 238.462 320.223 L 238.462 320.223 Q 229.297 312.84 219.368 308.003 L 219.368 308.003 L 219.368 308.003 Q 209.439 303.166 198.747 303.166 L 198.747 303.166 L 218.604 294.51 L 218.604 294.51 Q 226.242 290.946 237.444 285.854 L 237.444 285.854 L 237.444 285.854 Q 248.645 280.763 258.829 276.18 L 258.829 276.18 L 258.829 276.18 Q 269.012 271.598 276.65 268.797 L 276.65 268.797 L 276.65 268.797 Q 284.287 265.997 284.796 266.506 L 284.796 266.506 L 284.796 266.506 Q 285.305 267.524 283.014 270.07 L 283.014 270.07 L 283.014 270.07 Q 280.723 272.616 276.904 275.671 L 276.904 275.671 L 276.904 275.671 Q 273.085 278.726 269.521 281.272 L 269.521 281.272 L 269.521 281.272 Q 265.957 283.818 264.43 284.327 L 264.43 284.327 L 264.43 284.327 Q 254.755 289.928 246.354 294.765 L 246.354 294.765 L 246.354 294.765 Q 237.953 299.602 229.297 303.675 L 229.297 303.675 L 229.297 303.675 Q 241.008 308.258 253.228 316.659 L 253.228 316.659 L 253.228 316.659 Q 265.448 325.06 276.65 334.735 L 276.65 334.735 L 276.65 334.735 Q 287.851 344.409 297.526 353.319 L 297.526 353.319 L 297.526 353.319 Q 307.2 362.23 313.819 367.831 Z  M 148.848 399.399 L 148.848 399.399 L 148.848 399.399 Q 150.376 408.055 152.922 416.202 L 152.922 416.202 L 152.922 416.202 Q 155.467 424.348 159.032 429.949 L 159.032 429.949 L 159.032 429.949 Q 159.541 429.949 159.795 430.713 L 159.795 430.713 L 159.795 430.713 Q 160.05 431.477 159.032 431.477 L 159.032 431.477 L 159.032 431.477 Q 158.013 431.477 156.74 430.713 L 156.74 430.713 L 156.74 430.713 Q 155.467 429.949 154.449 429.949 L 154.449 429.949 L 154.449 429.949 Q 147.83 425.876 144.011 420.02 L 144.011 420.02 L 144.011 420.02 Q 140.192 414.165 137.646 399.399 L 137.646 399.399 L 137.646 399.399 Q 136.628 393.798 136.628 385.142 L 136.628 385.142 L 136.628 385.142 Q 136.628 376.486 137.137 368.594 L 137.137 368.594 L 137.137 368.594 Q 137.646 360.702 138.665 355.101 L 138.665 355.101 L 138.665 355.101 Q 139.683 349.5 141.72 349.5 L 141.72 349.5 L 141.72 349.5 Q 142.229 349.5 142.993 352.046 L 142.993 352.046 L 142.993 352.046 Q 143.757 354.592 144.266 357.902 L 144.266 357.902 L 144.266 357.902 Q 144.775 361.211 145.029 364.266 L 145.029 364.266 L 145.029 364.266 Q 145.284 367.321 145.284 368.34 L 145.284 368.34 L 145.284 368.34 Q 146.302 376.996 146.812 384.633 L 146.812 384.633 L 146.812 384.633 Q 147.321 392.271 148.848 399.399 Z  M 371.864 431.477 L 371.864 431.477 L 371.864 431.477 Q 380.011 431.986 384.339 431.731 L 384.339 431.731 L 384.339 431.731 Q 388.667 431.477 395.795 430.458 L 395.795 430.458 L 395.795 430.458 Q 396.304 430.458 398.341 430.204 L 398.341 430.204 L 398.341 430.204 Q 400.378 429.949 400.887 430.458 L 400.887 430.458 L 400.887 430.458 Q 401.396 431.477 399.614 433.004 L 399.614 433.004 L 399.614 433.004 Q 397.832 434.532 396.814 435.041 L 396.814 435.041 L 396.814 435.041 Q 388.667 437.587 381.793 438.605 L 381.793 438.605 L 381.793 438.605 Q 374.919 439.623 361.681 438.096 L 361.681 438.096 L 361.681 438.096 Q 357.098 437.587 351.498 436.059 L 351.498 436.059 L 351.498 436.059 Q 345.897 434.532 341.314 432.75 L 341.314 432.75 L 341.314 432.75 Q 336.732 430.967 334.186 429.185 L 334.186 429.185 L 334.186 429.185 Q 331.64 427.403 333.167 426.385 L 333.167 426.385 L 333.167 426.385 Q 334.186 425.876 339.532 427.149 L 339.532 427.149 L 339.532 427.149 Q 344.878 428.422 346.915 428.931 L 346.915 428.931 L 346.915 428.931 Q 354.043 430.458 360.153 430.967 L 360.153 430.967 L 360.153 430.967 Q 366.263 431.477 371.864 431.477 Z " fill-rule="evenodd" fill="rgb(255,255,255)"/></g></svg>